<svg id="Layer_1" data-name="Layer 1" xmlns="http://www.w3.org/2000/svg" xmlns:xlink="http://www.w3.org/1999/xlink" viewBox="0 0 313.19 300.92"><defs><style>.cls-1,.cls-2,.cls-3{stroke:#fff;stroke-miterlimit:10;stroke-width:5px;}.cls-1{fill:url(#linear-gradient);}.cls-2{fill:#c83493;}.cls-3{fill:#f7ec13;}</style><linearGradient id="linear-gradient" x1="367.9" y1="83.85" x2="230.9" y2="546.85" gradientUnits="userSpaceOnUse"><stop offset="0.14" stop-color="#d3489a"/><stop offset="0.61" stop-color="#c93694"/><stop offset="0.66" stop-color="#c83493"/></linearGradient></defs><path class="cls-1" d="M298,416.59l-.68,1A49,49,0,0,1,242.63,436V410.76A103.25,103.25,0,0,0,292,417.42C294,417.2,296,416.93,298,416.59Z" transform="translate(-116.29 -139.86)"/><path class="cls-2" d="M427,191.31A48.84,48.84,0,0,1,424.73,206H306.27V368.22a58.9,58.9,0,0,1-53.31-1.1,58,58,0,0,1-10.33-7.05V206H167.74A49,49,0,0,1,121,142.36H378A49,49,0,0,1,427,191.31Z" transform="translate(-116.29 -139.86)"/><path class="cls-3" d="M339.49,374.05a43.5,43.5,0,0,1-19.09,36A101.17,101.17,0,0,1,298,416.59c-2,.34-4,.61-6,.83a102.8,102.8,0,0,1-49.38-197.66v50.69a58.78,58.78,0,0,0,0,89.62,58.55,58.55,0,0,0,38.06,14,58.58,58.58,0,0,0,25.58-5.84,59.21,59.21,0,0,0,23.87-21.12A43.35,43.35,0,0,1,339.49,374.05Z" transform="translate(-116.29 -139.86)"/><path class="cls-3" d="M341.52,258.2a43.43,43.43,0,0,1-9.9,27.66,59,59,0,0,0-25.35-23.56V215.68a99.44,99.44,0,0,1,11.13,3.55A43.54,43.54,0,0,1,341.52,258.2Z" transform="translate(-116.29 -139.86)"/></svg>